<svg xmlns="http://www.w3.org/2000/svg" viewBox="0 0 146.15 385.22"><defs><style>.cls-1{fill:#fbbc9f;}.cls-2{fill:#5daccb;}.cls-3{fill:#f9cbb8;}.cls-4{fill:gray;}.cls-5{fill:#42433f;}.cls-6{fill:#24242d;}.cls-7{fill:#5b548f;}.cls-8{fill:#bcaea0;}.cls-9{fill:#cea996;}.cls-10{fill:#c6c5c1;}.cls-11{fill:#222225;}.cls-12{fill:#3e2c23;}.cls-13{fill:#c4957e;}.cls-14{fill:#632f20;}.cls-15{fill:#532111;}.cls-16{fill:#939598;}.cls-17{fill:#34271d;}</style></defs><g id="Layer_4" data-name="Layer 4"><g id="Layer_1" data-name="Layer 1"><path class="cls-1" d="M678.16,364l.13.4v.87l-.09.72-.05.34a5.32,5.32,0,0,1,.14.89c0,.16.09,1.7.15,2.06s.43,2.51.43,2.8.11,1.72.2,2.2.26,1.12.51,2.21,1.29,2.11,1.22,2.42,2.83,2.76,2.83,2.76l3.18,2.13L678,385.9l-3.23,1.3L662,392.4l-6.33,2.37-1.23-2.84,1.76-7.33,19.18-19.77Z" transform="translate(-567.11 -319.49)"/><polygon class="cls-2" points="0 131.57 26.66 122.87 61.57 141.32 59.39 155.07 55.61 155.07 0.92 134.44 0 131.57"/><path class="cls-3" d="M631.21,432.79l-.77,1.56-.67,2.09-1.15,2.18-1.55,4s-1.26,3.39-1.66,4.13-2,2.92-2,2.92l-.81.75s-1.2.23-1.89.34a9.14,9.14,0,0,0-2.06.58l-1.15.57s-1.83-.23-2.41-.34-.63.05-1.26-.35-2.69-.86-3.27-1.26a6.11,6.11,0,0,0-2-.57v-1.66l.46-2a10.58,10.58,0,0,0,.51-1.32,3.79,3.79,0,0,0,0-2.11,7.19,7.19,0,0,0-.92-1.56,6.48,6.48,0,0,0-1.49-1,5.74,5.74,0,0,0-1.55,0l-1.38.92L602.83,442l-1.38-2.09s-2.81-2.14-3.27-2.68-1.6-1.68-1.6-1.68l-1.45-1.23a4.88,4.88,0,0,0-1.92.39,5.78,5.78,0,0,0-1.26,1,4.85,4.85,0,0,0-.51,1.14,11,11,0,0,0,0,1.15,2.19,2.19,0,0,0-.6,1,9.34,9.34,0,0,1-.57,1.61l-.74.46-.86.57-.52,1.49-.4,1.6,6-2.39,1.93,1,1.87,1.11,2.5,1.22,3.92,2.07,4.17,2.21,11,5.93,4,1.08,11.23-.28a21.26,21.26,0,0,0,1.44-2.81c.05-.46.8-7.34,1.14-8.49s-.28-5.38,0-6.87-.23-4.19-.23-4.82.06-3.38.06-3.38l-2.63.23Z" transform="translate(-567.11 -319.49)"/><path class="cls-4" d="M654.36,391.1a.85.85,0,0,0,.46.83c.52.26,1.15,0,2.18,0a50.36,50.36,0,0,0,6.07-1.4c.75-.23,3.73-2.07,4.88-2.7s3-1.72,4.12-2.46a33.88,33.88,0,0,1,4.42-2.53,14.86,14.86,0,0,1,3.55-1.2,10.56,10.56,0,0,1,3,.52c.81.22,3.79,1.6,3.79,1.6A5.14,5.14,0,0,0,688.2,385a44.69,44.69,0,0,1,4.88,1.82c.51.42,3.21,2.19,3.21,2.19s3.32,1.84,3.72,2.24a6,6,0,0,0,1.09.78s1.15.94,1.15,1.63a4.26,4.26,0,0,0,.34,1.83,4.87,4.87,0,0,0,.75,1.38c.28.4.4.11.34,1.37s-.29,2.07-.34,3.44-.65,3.23-.5,4.46.18,4.28.85,6.11,1.6,6.46,1.9,7.74a33.75,33.75,0,0,1,1.22,4.95,17.16,17.16,0,0,0,.92,3.67s-.32.07-.27.7a15.51,15.51,0,0,1-.05,2.81c-.12.63-.06,1.15-.92,1.61L704.2,435l-2.7.63s-2.29,2.07-2.41,3.67a75.93,75.93,0,0,0-.45,8.26c.11,2.86-.23,8.59-.35,10.43s0,3.78-.11,5.16-.35,5.39-.35,5.39-.23,1.72-.46,2.63a19.93,19.93,0,0,0-.34,2.3l.57,2.18L697,477l-2.18,2.41,1.26,1.49a5.37,5.37,0,0,1,.23,2.18,18.49,18.49,0,0,1-1.14,2.63,10.78,10.78,0,0,1-1.84,1.38h-2.18l-2.75-.57-4,.57H681a18.84,18.84,0,0,0-2-1.15,9,9,0,0,1-2.18-1.83,15.42,15.42,0,0,0-2.75-2.29l-.92-.46L637.24,486l-1.76-29.73-.46-6v-4a38.12,38.12,0,0,1,0-4A9.76,9.76,0,0,0,635,440l1.06-.31v-1.75a14.3,14.3,0,0,0-.23-1.46,5.57,5.57,0,0,1-.23-2.07l.15-.83-.75-1.07s-2,0-2.38-.08a8.7,8.7,0,0,0-2.14.77l1.56-5.35a31.45,31.45,0,0,1,.23-4c.23-1.14.35-4.47.35-4.47l.23-3.67.57-1.49.11-2.75.92-3.21,1.49-1a3,3,0,0,0,1.49-1.61A18.15,18.15,0,0,1,639,403l3-1.72,3.26-2.52,2.64-1.38,1.38-.8,3-2.53Z" transform="translate(-567.11 -319.49)"/><path class="cls-5" d="M647.71,672c.31.31,2.14,2.29,2.22,3.75a8.1,8.1,0,0,0,.53,2.52l.31,2.21v1.76a7.89,7.89,0,0,1,.46.92,2.31,2.31,0,0,1,.38,1.53,4.37,4.37,0,0,0,0,1.53,1.63,1.63,0,0,1-.81,1.22,26.72,26.72,0,0,1-2.67,1.22,3.35,3.35,0,0,1-1,0c-.54-.07-1.38.77-1.76.84a10.82,10.82,0,0,1-1.61,0,3.61,3.61,0,0,0-2.21.39,15.22,15.22,0,0,0-1.91,0c-.54.07.84.45-.54.07l-1.38-.38-3,.55-.92-.47s.31-.54-.92-.39-5,.86-5,.86l-4.74,1.51a16.4,16.4,0,0,0-1.61.84l-1.57.83-.84.4h-.67s-.07-.33-.28-.27a2.66,2.66,0,0,0-.59.34l-.21.35-.56.4-1.37.25-1.34.19-.37-.14h-.49l-.58.42-.51.34a8.34,8.34,0,0,0-1,0h-1.34l-.34-.11h-.64l-.38.34L608,696l-1.37.12h-.71l-.27-.16-.38-.23a1.13,1.13,0,0,0-.57.12l-.21.13-1.68.14h-1a2.41,2.41,0,0,0-.65-.12c-.19,0-1.24.13-1.51.12a8.33,8.33,0,0,1-.9-.14s.06-.23-.61-.32l-1.1-.14-.41.1h-.49l-.86-.4c-.19-.12-.38-.24-.56-.38l-.67-.62-.7-.89-.54-.61c-.25-.29-.67-.83-.67-.83l-.28-.93-.08-.75v-3l.4-1.43a7,7,0,0,1,.25-1l.4-.84.5-.8,1.3-1.32.67-.4.59.06.63.15a7.32,7.32,0,0,1,1.07-.57c.44-.18.89-.34,1.34-.48s2.31-.57,2.58-.63,1.56-.1,1.56-.1l.67.08,1.49-1.45.65-.33,1.36-.06h.82a10.33,10.33,0,0,0,2-.34c.34-.19,1.49-.82,1.73-1s2.35-1.42,2.35-1.42l5.66-4.62Z" transform="translate(-567.11 -319.49)"/><path class="cls-5" d="M683,675.89l-2,2.67c-.23.31-.69.94-1,1.43a12.86,12.86,0,0,1-.86,1.09l-.4-.15-.32.15v.77l-1.15.63-1,.8-.83.32-.6.6-.17.69s-.64-.23-.84-.15-1.09.64-1.09.64l-1,.83-.69.86h-.63a3.5,3.5,0,0,0-1,.25c-.29.18-1.61.89-1.61.89l-1.06.83s-.82,1.06-1.13,1.35A7.35,7.35,0,0,0,664.4,692c-.23.48-.91,1.74-1,2a6,6,0,0,0-.4,1.49V698l.34,1.4.09,1.49s-.32.37.23.92l1,1a24.48,24.48,0,0,0,3.15,1.49l3.47.43h4.19a5.81,5.81,0,0,1,1.37-.2,2.32,2.32,0,0,0,.83,0L678,704l1-.08,1.57.11,1.32-.48.49-.23h2.23l2-1a3.89,3.89,0,0,1,.89-.17c.6,0,2.09-.23,2.09-.23L691,700.8a4.25,4.25,0,0,1,1.26-.32,6.6,6.6,0,0,0,1.46-.34l.58-.95s.6-.17,1.12-.29,1.51-1.69,1.51-1.69l1-1.32s.91-.65,1.23-.94a10.74,10.74,0,0,1,1.17-.83l1.29-.6.52-.38.69-.28a11.42,11.42,0,0,0,1.17,0,11.67,11.67,0,0,0,1.61-.4l.63-.57.72-.26h1.14l1.06-.66.69-.54.49-.14,1.72-1.15.2-.32.37-.17.37-.2v-.89a1,1,0,0,0,.24-.63,7.71,7.71,0,0,0-.55-2l-.2-1.11-.4-1.81-.41-1.17-.4-1.35-.69-2.42Z" transform="translate(-567.11 -319.49)"/><path class="cls-6" d="M652,394.2l-2.23,1.89-1.16,1.43-1.78,2.69s-4.4,7.4-4.81,8.54-2.81,6.83-2.81,6.83-.63,2.23-.69,2.8-.34,2.64-.34,2.64l-2,.92-.4,2.18v2.12l-.31,1.2v2.94l-.27,1.15.12,1.45-.12.77.35.6.16,1.81-.09,1.94.08.85.31.68-.58.17-.48.14v6.65a3.09,3.09,0,0,0-.06.86c.06.23-.32.74-.26,1.66s0,2.64,0,2.64l-.45,4.41v.63l-2.69,20.3-.58,1.49v2.63l2.52,4.82,2.76,2.86,1.37.69-1.26,2.18.34,2.75-.68,1.72a5.69,5.69,0,0,0-.46,2.3c.11.91,10.09.49,12.53,0s16.51-2.34,16.51-2.34l21.1-.91,9.17-1.46-.53-1.52-.92-2-1.3-1.61-.23-1.64-4-.5-3.28.5h-5l-1.95-1.53L676.14,484l-1.22-1-1.68-.31L669.07,479l-1.41-2.1-.15-2.37v-1.79l.15-.43L669.07,450l1-6.88.38-4.74V433l-.07-3.59.22-2.22.37-1.36-.06-2,.46-1.38.17-1.77v-2.87s.23-2.24.4-2.81.46-2.24.63-2.81.58-2.52.86-3.21a24,24,0,0,1,.81-2.87,21.16,21.16,0,0,0,1.1-2.54l1.23-2.52.91-2.83,1.23-2.67s1.14-2.3,1.68-3.21,1.76-2.83,1.76-2.83l1.83-1.83a13.7,13.7,0,0,1,1.76-1.38,3,3,0,0,1,2.83-.54c.76.23,3,.77,3,.77l2.73,1.09,1.14.77s-1-1.19-1.21-1.42a18.65,18.65,0,0,0-3.31-1.59,5.32,5.32,0,0,0-1.42-.27c-.83,0-2.33-.19-2.75-.19a9.51,9.51,0,0,0-2.48.39c-.5.23-5.43,5.27-5.43,5.27l-2.52,3.67-3,5.16-2.41,4.47-2.29,4.7-1.49,5.16-1,1.83a8.39,8.39,0,0,1-1,.06,2.45,2.45,0,0,0-.8.23,3.44,3.44,0,0,0-.48,1.05c0,.29-.26,2-.26,2l-.3,1.05v3.71l.58,1.54s-1.32.63-1.32,1.32v2.18a14.09,14.09,0,0,1-.11,1.84c-.12.57-.46,3.49-.46,3.49l-.29,1.72s-5.79.12-6.36.23a22.91,22.91,0,0,1-2.87.17c-.57,0-3.26.46-3.26.46l-3.9,1.15-2.24,1-3.09-.17a20.14,20.14,0,0,1,.13-2.2c.12-.61.12-2.1.19-2.63a24.73,24.73,0,0,0,.35-3.33,5,5,0,0,0-.39-1.18s.16-.61.31-1.11.38-3.82.38-3.82l.31-2.45.07-1.45h-.72a5.12,5.12,0,0,1,.14-1.35c.17-.63.37-2.21.6-2.69s1-4.45,1.49-5.31.92-1.94,1.49-3" transform="translate(-567.11 -319.49)"/><path class="cls-6" d="M682.05,676.58c1.31.42,3.13,1,5.33,1.6s3.69,1,5.73,1.43c3,.6,3,.32,6.19.86,4.88.83,5.94,1.64,7.91,1a7.53,7.53,0,0,0,3.83-3,5,5,0,0,0,.11.76,1,1,0,0,1-.11-.76c.11-.42,0-2.87.42-3.33a5.78,5.78,0,0,0,1.37-2.18c.23-.54.5-.69.42-1.15s-.11-1.61-.15-1.95-.31-1.34-.38-1.61a10.3,10.3,0,0,0-.38-1.45c-.2-.42-.54-1.41-.54-1.41l-.73-1.45-.49-.5s-.54-.65-.46-1,.15-1.15.15-1.15l-.19-.76-1-1.19-.58-.34-.88-.39.08-1.3,1.49-.53a4.07,4.07,0,0,0,1.11-1c.19-.38.15-2.29.34-2.9s.08-2.83.16-3.21,0-2.25,0-2.6.08-3.63.08-3.63v-3.36c0-.76-.27-3.56-.23-4s-.76-4.39-.69-5-.42-4.43-.42-4.43-.3-2.72-.34-3.14-.58-6.5-.5-6.88-.08-3.28-.08-3.28-.84-3-.87-3.52a19.59,19.59,0,0,0-.46-2.52l-1.26-3.9-1.34-2.79.61-5.47a8.47,8.47,0,0,1-.57-2.86c0-1.49-.69-3.67-.69-5.16a25.08,25.08,0,0,0-.8-4.47l-.69-4.13-.57-3.09-2.41-2.76-.12-3,.92-3V560s-.11-2.3-.23-3.21-.57-2.87-.57-2.87l.11-1.49,1.07-4.55s-.15-3.67-.15-4.43a48.48,48.48,0,0,0-.76-5.5c-.31-1.38-.77-4.13-.77-4.13l1.07-3.67.46-3.21-.46-3.06-.3-4v-3.06l-1.08-4.89a13.77,13.77,0,0,1-1.37-3.67,34.62,34.62,0,0,0-2.09-5.66v-6.72l-.51-2.07L693,492.37l-55.53,3.06-1.22,1.38-.65,1.72.19,1.26s.19,1.33.19,1.75-.15,1.65-.15,2.14a3.9,3.9,0,0,1-.23,1.76,2.82,2.82,0,0,0-.54,1.34,7.1,7.1,0,0,1-.23,1.38,3.66,3.66,0,0,0-.57.84c-.34.61-.8,1.1-.8,1.6v1.53a3.35,3.35,0,0,1-.46,1.22,5.49,5.49,0,0,0-.84,1.76c-.12.54-.5,1.19-.61,1.91a8.36,8.36,0,0,0,0,2,7.78,7.78,0,0,1,.11,1.6,14.46,14.46,0,0,1-.65,1.92l-.34,1.26s-.57,1.18-.73,1.6a7.38,7.38,0,0,1-.91,2,3.22,3.22,0,0,0-.92,1.45,12,12,0,0,0-.5,2.29c-.08.84-.42,2.45-.38,3.06s-.31,2.14-.23,2.56-.14,1.38,0,1.83a4.84,4.84,0,0,1,.16,2.14,23,23,0,0,0-.38,2.49c0,.57-.31,2.06-.27,2.52a8,8,0,0,0,0,1.38,12.83,12.83,0,0,1,.19,1.75l.46,1.15s.31,1,.08,1.19-.52,1.52-.77,1.91,0,1.07,0,1.72a15.32,15.32,0,0,0,.23,1.91s-.32,2-.35,2.37a15.7,15.7,0,0,1-.68,2V563a3,3,0,0,1,0,1.11,22.8,22.8,0,0,0-.19,2.48c0,.38-.15,1.64-.15,2.1a8.23,8.23,0,0,0,.27,2.26,17.24,17.24,0,0,1,.42,1.72,14.2,14.2,0,0,1,0,2.44c0,.35-.2,1.57-.2,1.57a3.21,3.21,0,0,0-.19,1.68,9.44,9.44,0,0,1,.12,1.84,6.62,6.62,0,0,0-.69,1.18c-.19.5-1,2.41-1.11,2.83s-.23,1-.34,1.41a10.44,10.44,0,0,0-.31,2.3c0,.76-.19,5.54-.19,5.54l.46,3.55.65,2.1v1.34l-.92.76s-.57.46-.57.85a10.15,10.15,0,0,0,.46,1.72l.19,1.6v3.52l-.65,1.6s-.19,1.76-.19,2.22v3.06l-.23,4.5-.27,4.09-.38,2.34a24.54,24.54,0,0,0,0,3.43c.15.62.5,7.5.5,7.5l.3,4.89s.42,5.35.35,5.69.3,4.4.3,4.4V656l.08,1.22,2.33,2-2,1.87-1.07,1.87-1.34,2-.53,1.49-.77,1.8-1,1.49-.46.49-.46.88,4.24,4.42,7.23,2.06,7.62.52,8.14-1.09,3-1.84,1.15-1-.17-1.49-1-3.44.57-1.84s1.26-1.83,1.14-2.75-.57-2.75-.57-2.75l-1.83-1.26-.23-1.83,1.26-2.53,1.49-1.72,1.49-3.78-.61-3.86s-.69-2.14-.92-3a7,7,0,0,1-.23-3.06c.23-.76.84-3.51.84-3.51s.92-3,1.23-3.75,1.07-4,1.07-4l1.14-4.82a23.57,23.57,0,0,1,.54-3.74c.3-.84.76-2.91.76-2.91l.38-1.37-.38-3.44a4.22,4.22,0,0,1,0-2.06,33.52,33.52,0,0,0,.77-3.44l-.46-3.9.91-1.91.69-2.6-.07-1.76,1.14-2,2-5.12,1.22-5s.69-2.14,1.07-3.06.69-3,1.07-3.74a11.28,11.28,0,0,0,.46-3.06l.08-2,.92-2,1.45,2.91s.91,2.83,1.22,3.51a25.67,25.67,0,0,1,.76,3.37s-.22,4.2-.15,5,.23,3.82.23,3.82.23,1.53.31,2.45.46,3.44.46,3.44l1.75,9.55.54,3.21.92,4.13.22,2.45.39,2.59,1.45,3.75,1.22,2.14,2,4.28a22.13,22.13,0,0,0,1,2.22,36.78,36.78,0,0,1,1.68,4c.23.69,1.07,3.29,1.3,4s1.3,3.36,1.3,3.36l1.61,4.2.15,4.82.77,5-.23,2.14c-.43.26-.86.54-1.26.84a5.91,5.91,0,0,0-1.27,1.46,2.26,2.26,0,0,0,.35,1.6,5.37,5.37,0,0,0,.84,1c.23.23.23.92.38,1.3a9.77,9.77,0,0,1,.5,1.91c0,.35-.35,2.26-.35,2.26l-.57,1a10.84,10.84,0,0,0,.08,1.45,5.37,5.37,0,0,1-.19,1.19l-.65,1.72C682.8,674.72,682.42,675.65,682.05,676.58Z" transform="translate(-567.11 -319.49)"/><path class="cls-1" d="M680.9,429.56s.17,2.53.23,3.21.12,1.72.29,2.64.28,2.41.4,3.27a18.35,18.35,0,0,0,.29,2.46c.23.92.28,1.21.51,1.95s-.17-.57.23.75.57,2.06.57,2.06l-2,.63s-2.7,1.55-3.21,1.78-2.81,1.43-3.67,1.95-4.24,2.12-4.24,2.12l-3.21,1.26s-2.7,1.15-4.07,1.6-6,2.07-6,2.07l-8.54,2.46-3.56.52s-1.49.34-2.12.4-2.52.52-3,0a28,28,0,0,0-2.92-1.89c-.69-.46-2.47-2.12-2.47-2.12l-3-2-1.6-.69s-1.7.1-2.33.21-2.18.35-2.81.4-3.21.58-3.21.58l-1.15,1,4.82,2.18.4.69a1.75,1.75,0,0,1-.92.46c-.51.05-3.67.05-3.67.05a22.59,22.59,0,0,1-2.46-.17,4.26,4.26,0,0,0-2.24-.06,15.64,15.64,0,0,0-2,1.21l-.35,1.78s.14.78.21,1a12.11,12.11,0,0,0,1.88,1.09h1.71v.73a4.66,4.66,0,0,0,0,1.18c.07.46-.27.19.21.82a3,3,0,0,0,1.11,1c.53.34.32.78.4.93s.07.27.3.88a4,4,0,0,0,1,1.8c.57.49,1.37,1.33,1.37,1.33a3.56,3.56,0,0,0,.08,1.34c.19.46.69,1.07,1,1.72s.5,1.57,1.3,1.76l3.1.76,1.79-.65,1.69-.19,2.9.23,3-.91a21.44,21.44,0,0,1,3.52-.92c1.6-.23,4-.77,5.12-.84s10.85-1.68,11.69-1.76,4-.54,6-.84,13.8-2.87,13.8-2.87l6.47-2.75s5.91-2.18,7.86-2.75,5.62-2,7.11-2.52a4.92,4.92,0,0,0,4.18-4.3c.29-1.09.46-4.87.57-5.56s.52-5.51.75-6.65-.57-4.36,0-6-.14-3.44,0-5.16.19-6.08.19-6.08-2.87-.46-3.33-.92a4.45,4.45,0,0,0-2.52-.91c-.8,0-4-.12-4.7,0s-4,.45-4.93.57-5,.8-5,.8Z" transform="translate(-567.11 -319.49)"/></g></g><g id="Layer_3" data-name="Layer 3"><g id="pen"><path class="cls-7" d="M601.22,446.19a6.18,6.18,0,0,1,0-1.92c.2-.49.92-2.38.92-2.38l.89-1.29.63-.8.66-.58h.74l-.31,1.09-.2.78-.32,1.14-.74,3.64-.09,1-.14.34-2-1" transform="translate(-567.11 -319.49)"/><path class="cls-8" d="M605.35,440.4c.06-.23.4-1.38.4-1.38l.57-1.66.46-1.49v-1.23a1.26,1.26,0,0,0-.72,0,3,3,0,0,0-.71.66l-.29.57-.51-.29-.41.6s-.48,1.27-.6,1.52l-.89,1.78.12.77.51-.25,1-.35.63.17.49.58" transform="translate(-567.11 -319.49)"/></g></g><g id="Layer_2" data-name="Layer 2"><g id="head"><path class="cls-9" d="M638.16,327.12c-.61.62-3.52,3.52-4.28,4.13a19,19,0,0,0-2.3,3.06,30.73,30.73,0,0,0-.91,3.67c-.16,1.22-.31,4.12-.61,5.81a31.11,31.11,0,0,1-1.23,5.65,4,4,0,0,0-.46,2.45c.08.3,1.3.46,1.84.61s1.83.46,1.91,1.22a24.69,24.69,0,0,1-.15,3.44c-.08.69-.16,2.45-.16,3.37a25.78,25.78,0,0,0,.14,3.17,19.48,19.48,0,0,0,.8,3.09,19.1,19.1,0,0,1,1,2.64c.23.86.81,4,1,4.81s1,3.9,1.14,4.82a35.32,35.32,0,0,1,.35,4.93c-.12.92-.35,3.32-.35,3.32a8.09,8.09,0,0,0,1.11,1.88,18.56,18.56,0,0,0,3.52,2.37c.46.07,5,.53,5.58.3a19.14,19.14,0,0,0,3.21-1.14c1.52-.77,4.51-1.91,4.51-1.91s6.65-2.37,7.72-2.6a14.82,14.82,0,0,0,4.28-2.45,12.57,12.57,0,0,0,2.67-2.37,17.09,17.09,0,0,0,2.29-3.59,27.14,27.14,0,0,0,1.15-5.35,8.86,8.86,0,0,1,1.91-4.28c1-1,1.84-2.22,2.75-3l.92-.77.52-.61V363a2.18,2.18,0,0,0,1-.57c.57-.52,1.89-1.49,1.89-1.49l1.09-1.42s.06-.13.29-.76.63-2.47.63-2.47a30.64,30.64,0,0,0,0-3.32c-.12-.52-.35-1.72-.52-2.47a9.41,9.41,0,0,0-.75-2.06c-.22-.4-1.31-.72-1.31-.72V347s.11-1.32.11-1.66v-1.52c0-.43.14-2.36.14-2.36l-.38-3.37s-1.65-5.59-2.62-7.2-7.17-6.48-10.26-7.62-9.75-2.87-13.07-2.3-9.63,2.07-11.47,3.21S638.16,327.12,638.16,327.12Z" transform="translate(-567.11 -319.49)"/><circle class="cls-10" cx="84.06" cy="33.44" r="4.75"/><path class="cls-11" d="M647.9,350a3.5,3.5,0,0,0-.69,2.42l.42,1.53h0l.77,1,.5.42a1.71,1.71,0,0,0,1.26,0,6.27,6.27,0,0,0,1.33-1.19,4.25,4.25,0,0,0,.46-1.67,9.53,9.53,0,0,0-.15-1.5c-.11-.39-.23-.78-.34-1.16Z" transform="translate(-567.11 -319.49)"/><path class="cls-12" d="M642.84,351.17a9.62,9.62,0,0,0-.92-.77.14.14,0,0,1,.12-.07l.34.1.27.1.25.12v-.43c0-.13,0-.27.07-.4l.16-.3a.8.8,0,0,1,.15-.17.08.08,0,0,1,.11,0h0l-.09.11-.1.12v.15a.49.49,0,0,0,0,.17.38.38,0,0,1,0,.15.29.29,0,0,0,0,.13,1.46,1.46,0,0,0,.16.19l.15.26v-.17l-.14-.31v-.25a.89.89,0,0,1,0-.23l.15-.17.22-.21-.1.21-.12.17v.17s.05.18.07.22l.11.33.17.2v-.39a4.1,4.1,0,0,1,.1-.48,2.25,2.25,0,0,1,.18-.35l.13-.11-.09.32.09.29.07.17.09-.36.15-.34.13-.12s.34.27.36.27a.67.67,0,0,1,0,.2l-.24.32-.08.4v.16a4.65,4.65,0,0,1,.32-.63c.1-.11.27-.44.36-.53l.24-.19.48-.17c.12-.06.59-.42.59-.42l.21-.15-.42.69-.15.49.23-.24a2,2,0,0,1,.22-.46c.08-.09.36-.36.36-.36l.52-.24-.44.67-.09.14-.13.3.66-.76.3-.12.27-.07-.27.3-.42.41-.12.42a5.27,5.27,0,0,1,.72-.52l1-.45c.31-.13,1.19-.45,1.19-.45l.8-.05.32-.06-.28.31a1.06,1.06,0,0,0,.56,0l.45-.27.57.06,1.17.21s.55.24.76.36a3,3,0,0,1,.48.31h.59l.26.09v.24l-.81.3-.19.12h.63l.37.13.27.22-1.47.16s-.8-.05-1.1-.05a9,9,0,0,0-1.16.05,9,9,0,0,1-1.18,0h-.53l-.25.14-1,.07H649l-.39.09-.87.07h-1.34l-.87,0-.37.43h-.84Z" transform="translate(-567.11 -319.49)"/><path class="cls-12" d="M633.29,351.77a1.73,1.73,0,0,1-.8-.4,8.72,8.72,0,0,1-.54-1l-.43-.32.11.85.14.3.09.2h-.34l-.52-.49-.5-.45-.66-.24a3,3,0,0,1-.6,0,1.31,1.31,0,0,1-.37-.24l-.19-.16-.23.72-.08.35v1l.06.08.17.11.4.14.3.07.56.13,3.38-.33h.61Z" transform="translate(-567.11 -319.49)"/><path class="cls-10" d="M633.11,352.37a6,6,0,0,0,0,1.47,10.11,10.11,0,0,0,.42,1.64,7,7,0,0,0,.81,1.61,9.29,9.29,0,0,1,.84,1.14l.53.46h1s.53-1.57.66-1.76a21.45,21.45,0,0,0,0-3V352.4l-1,0H633.7Z" transform="translate(-567.11 -319.49)"/><path class="cls-11" d="M633.35,353v1.12l.18.92.91,1.09a1,1,0,0,1,.3.19.87.87,0,0,0,.62.17,1.6,1.6,0,0,0,.71-.36,4.35,4.35,0,0,0,.63-.85,5,5,0,0,0,.29-1,8.55,8.55,0,0,0,0-1.24,5.3,5.3,0,0,0-.13-.67l-1.1-.06-1.45.06h-1Z" transform="translate(-567.11 -319.49)"/><path class="cls-13" d="M636.89,347.3l.41,3.87v2.34l-.22.92a67.42,67.42,0,0,0-1,6.94c0,1.6-.27,3.44,0,3.93s.5,1.06.85,1.09a5.84,5.84,0,0,0,1.77,0,12.94,12.94,0,0,1,1.92-.6,19.66,19.66,0,0,0,2.32-.57,2.29,2.29,0,0,1,1.21-.18,15.87,15.87,0,0,0,1.69.18l.89-.86s.31-.61.17-.92a2,2,0,0,0-.83-1,12.42,12.42,0,0,1-1.26-.64l-.58-.16-.8-.11-1.06.74-.92.78" transform="translate(-567.11 -319.49)"/><path class="cls-14" d="M640.26,368l-.92-.54-.93-.46a2.86,2.86,0,0,0-.85-.34c-.21,0-.22-.33-.22-.33h1.26a4.27,4.27,0,0,0,1-.23c.23-.13,1-.42,1-.42a13.63,13.63,0,0,0,1.42-.26,5.08,5.08,0,0,1,1.07-.39c.47-.07.51,0,1.2-.07a7.38,7.38,0,0,0,1.24-.08,2.13,2.13,0,0,1,.94,0,2.53,2.53,0,0,1-.82.59,10.48,10.48,0,0,0-1.3.54c-.42.21-1,.38-1.4.55a9,9,0,0,1-1.39.6c-.29,0-1,.21-1.15.22l-.5.08Z" transform="translate(-567.11 -319.49)"/><path class="cls-15" d="M640.74,366.41c.29-.15.59-.28.89-.4a3.69,3.69,0,0,1,.9-.31,4,4,0,0,1,.77-.11,9.81,9.81,0,0,1,1.09.11l-.33.3-.76.33a8.68,8.68,0,0,1-1,.27h-.95Z" transform="translate(-567.11 -319.49)"/><path id="beard" class="cls-16" d="M669.07,359.91l1.27-1.22,1.45,1.22.53,3.21v3.34s.1,3.37,0,4.08-.72,4-.72,4l-.81,3.21-2.29,3.59-1,1-1,.75-1.37,1.05-1.63,1-1.44.73-1.29.39L657,387.51l-2.43.85-2.86,1.11-2.5,1.11s-1.41.48-1.81.66a18.31,18.31,0,0,1-1.78.55l-2.06-.08-3.14-.29L638,389.93l-1.73-1.77-.49-1s.37-4,.36-4.12-.23-3.4-.36-4.13-.65-3-.65-3l-.94-3.89,1.86-1.8,1.65-1.53,1.45-.61,3.29.69,5.93,1,5.14-.16,7.72-2.06,3.44-1.11,2.18-2.16,1.32-2.35Z" transform="translate(-567.11 -319.49)"/><path id="beard-2" class="cls-9" d="M636.36,375.56c.12.18,1,1.9,1,1.9l.49,2.69.72,2.18,4.45.51,2.43-1,2.12-2.67,1.52-1.34v-3.27l-.76-.69a12.31,12.31,0,0,0-1.45-.48l-1.52-.55-1.47-.4-1.15-.58-1.21-.22h-1.32l-1,.34-1.26.86-.42.9-.16.74-.47.31Z" transform="translate(-567.11 -319.49)"/><path id="beard-3" class="cls-16" d="M640.06,377.08l.68-.14,1.3.07,1.2.07h1a.84.84,0,0,1,0,.66c-.14.35-.31.86-.31.86l-1.37.92h-.93l-1.57-.66-.4-1.61Z" transform="translate(-567.11 -319.49)"/><path class="cls-17" d="M667.74,349.48l.26,1.34.23,2.11v1.67l.39,1.87c.09.4.17.81.22,1.22a5.07,5.07,0,0,0,.62,1.31l.95.61.58.27h.68l.32-.22.37-.72v-.77l.66.08-.23-.56v-.79l.46-.31L673,356l-.43-.92.2-.36.43-.36-.14-.71-.06-1,.72.3-.35-.58-.17-.58.11-.08.45.16.36.18-.35-.62V351l.11-.41.43.39.34.2-.14-.69-.07-.41a1.28,1.28,0,0,1,.21-.46l.82-.72.43-.37a5.55,5.55,0,0,1,.56-.24c.29-.1.47-.19.77-.27s.95-.19.95-.19h1a6.54,6.54,0,0,1,.89.07h.34c.06,0-.07-.65-.07-.65h.27l-.24-.87v-.5l.36.51-.18-.73-.1-.64-.11-.47.47.23-.33-.94-.37-.61h.5l.11-.37-.29-.75.38.2-.45-1-.15-.69.38.19-.35-.74h.39l-.42-.69-.21-.53.49.19-.42-1.36-.36-.76-.16-.7-.13-.23v-.08l-.06-.12-.29-.21.66.27-.47-.67-.43-.35.53.09-.3-.43-.3-.19.6.19-.2-.59-.72-.46.34-.08-.3-.51-.46-.7-.48-.6-.17-.26.81.13-.57-.46-.43-.3-.47-.48.43-.12-.35-.47-.74-.15.37-.27-.26-.31-.33-.25-.34-.14.61-.12-.44-.32-.62-.35-.24-.16h.6l-.6-.31-.33-.27-1.21-.69-.3-.65-.75-.09,1-.5h-1.86l.7-.42-.74-.28-.84.34.69-.71h-.71l-.57.08.68-.5-.45-.19-.85.31-.65.27.88-.83h-.67l-.84.16-.76.21,1.17-1.3-.83.23-.66.4,1-1-.77.21-.63.49-.72.17.88-.87H666l-.6.38h-.3l.11-1.09-.7.73-.16.17.12-.33.19-.57-.77,1.07v-1l-.52.55-.14-.8-.43.28-.32.75v-1l-.21-.32-.52.95-.15-1.3-.51.69-.19-.8-.39-.25v.92l-.3-.17-.48-.75-.1.77-.11.3-.34-1-.37.24-.23.5-.25-.84-.21-.07-.3.54v.55l-.24-1.19-.33-.24-.2.53v.51l.1.43-.26-.13-.1-.81-.11-.31-.13.46-.12.49-.4.19-.16-.62-.22-.53-.22.11-.24.41-.16-.63-.17-.1-.07.44.11.39-.17.25-.16-.67-.16-.14-.07.43v.43l-.13.44-.56-1.06-.34-.29v1.39l-.46-.93-.25-.4-.17.47-.1.56-.17.23-.26-.77-.31-.36-.17.82v.44l-.4-.51-.41-.46-.4-.31v.84l.1.54-.57-.44-.6-.46-.15.25.13.69.14.63-1-1.26c-.26.11-.15,1.14-.15,1.14l-1.07-.23-.76-.34.84,1.37-1.72-1.1-.58.07.6.52.7.34.31.33-.42.13-.52-.21-.44-.17-.53-.31h-.33l.25.33,1.3.57-1.22-.17-.86-.29-.34-.15.24.44.6.28.26.2-.68.17-.26-.16-.37-.22h-.06l-.5-.17-.17.22,1.34.79-1.22.31-.89-.43h-1v.55l1.15.11.74.26-1.89.12h-.89s-1.4.63-1.06.57l.35-.06h1.77l.75.17-.83.49h-1.61l-1.06.06-.63.6,1-.11,1.57-.06-.62.33-.35.19h-.34l-1.7.12-.25.17-.46.32,2-.2.6.37-.57.14-.73.09-.42,0-.39.22-1,.53,3-.46.8.2a5.12,5.12,0,0,0,.77-.2l.32-.11.69-.29H642l.63-.33.84-.24L643,327h1.41l-.63-.4-.11-.27h.9l.65.26h.38l-.42-.54v-.29l.61.14.61.36-.11-.44-.31-.4,0-.42.65.56.52.3h.51l.38.08-.44-.71.5-.17.67.11h.33l-.21-.48.22-.34H650l.43.29.15-.43.2-.32.63-.05.43.51.63-.57.17-.72.77.43.46.23,1.12-.2.69-.48.43-.29s.54.26.57.4a2.65,2.65,0,0,0,.29.52l.94-.09.46-.17h.74l.92-.11h.78l.37.52.37.14,1-.06.66.29,1,.92,1.49.37v.32l.09.86.28,1.17.83.52.4.51.78.61V330l-.39.09-.24,0,.6.83.26.81.2.34-.77-.2-.49-.26-.71.21.31,1.11.34,1.11.23.5.12,1-1-.08-.26.69-.08.61h-.42l-.92-.15.46.73-.42.3-.3-.17-.58-.32.8,1.85-.34.69-.57,1.32.28,1,.75,2.18.74.68s1,.88,1,1.19.74,1.34.8,1.62S667.74,349.48,667.74,349.48Z" transform="translate(-567.11 -319.49)"/><path class="cls-17" d="M678,363.58l.25.78v1.06l-.12.74h.47v-2l.23-1-.27-.37a2.28,2.28,0,0,1-.56.23Z" transform="translate(-567.11 -319.49)"/></g></g><g id="left-lid"><path class="cls-13" d="M633,352.05s-.59,3.34,2.67,6.64h.68s.7-4.61,1-5.25l0-1.36Z" transform="translate(-567.11 -319.49)"/></g><g id="right-lid"><path class="cls-13" d="M656,350.35a4.55,4.55,0,0,1,1,2.63,5.41,5.41,0,0,1-10.76,0,4.47,4.47,0,0,1,.6-2.19" transform="translate(-567.11 -319.49)"/></g></svg>